<?xml version="1.0" encoding="iso-8859-1"?>
<!-- Generator: Adobe Illustrator 19.0.0, SVG Export Plug-In . SVG Version: 6.00 Build 0)  -->
<svg version="1.1" id="Layer_1" xmlns="http://www.w3.org/2000/svg" xmlns:xlink="http://www.w3.org/1999/xlink" x="0px" y="0px"
	 viewBox="0 0 512 512" style="enable-background:new 0 0 512 512;" xml:space="preserve">
<g>
	<g>
		<path d="M488.607,64.497l-48.126-47.295c-19.9-19.552-52.005-19.273-71.565,0.626l-94.582,96.25
			c-19.603,19.946-19.325,51.959,0.625,71.562l24.061,23.647c6.652,6.536,6.748,17.204,0.209,23.857
			c-0.105,0.107-0.208,0.215-0.309,0.324l-60.935,65.399c-6.53,6.506-17.131,6.554-23.723,0.078l-0.154-0.152
			c-0.012-0.012-0.023-0.027-0.035-0.039c-0.018-0.018-0.037-0.033-0.055-0.049l-23.817-23.406
			c-9.534-9.367-22.107-14.509-35.456-14.509c-0.152,0-0.305,0-0.455,0.002c-13.517,0.117-26.177,5.492-35.65,15.133l-94.587,96.249
			c-19.609,19.947-19.329,51.958,0.621,71.563l48.128,47.291c24.566,24.144,59.647,24.626,92.562,15.501
			c57.65-15.988,133.999-68.407,204.233-140.223c70.228-71.809,121.171-149.544,136.275-207.941
			C518.977,107.682,503.717,79.345,488.607,64.497z M298.604,161.577c-6.649-6.534-6.745-17.203-0.209-23.853l94.581-96.248
			c6.522-6.633,17.225-6.728,23.86-0.211l15.569,15.299L313.124,175.847L298.604,161.577z M58.9,430.071l-10.581-10.396
			c-6.634-6.52-6.727-17.22-0.209-23.855l94.588-96.249c6.516-6.633,17.219-6.729,23.854-0.21l11.629,11.429L58.9,430.071z
			 M473.208,149.916c-13.694,52.944-61.444,125.018-127.732,192.8c-66.258,67.75-136.961,116.835-189.13,131.302
			c-27.285,7.567-47.438,5.194-59.9-7.052c0-0.001,0-0.001-0.001-0.001l-13.482-13.248l121.203-121.203
			c18.976,9.101,42.458,5.697,58.01-10.131c0.106-0.107,0.209-0.215,0.31-0.324l60.975-65.443
			c9.366-9.622,14.457-22.303,14.34-35.738c-0.056-6.403-1.306-12.61-3.617-18.382L456.468,80.213l8.494,8.346
			C477.721,101.096,480.494,121.74,473.208,149.916z"/>
	</g>
</g>
<g>
	<g>
		<path d="M300.972,3.275C287.441,1.101,273.589,0,259.801,0C117.184,0,1.155,116.029,1.155,258.646c0,15,1.302,30.045,3.87,44.715
			c1.435,8.193,8.556,13.964,16.597,13.964c0.965,0,1.944-0.083,2.928-0.256c9.176-1.607,15.314-10.347,13.707-19.523
			c-2.232-12.757-3.365-25.843-3.365-38.899c0-124.015,100.894-224.91,224.91-224.91c12.002,0,24.054,0.959,35.82,2.848
			c9.195,1.475,17.852-4.78,19.33-13.98C316.429,13.406,310.171,4.752,300.972,3.275z"/>
	</g>
</g>
<g>
</g>
<g>
</g>
<g>
</g>
<g>
</g>
<g>
</g>
<g>
</g>
<g>
</g>
<g>
</g>
<g>
</g>
<g>
</g>
<g>
</g>
<g>
</g>
<g>
</g>
<g>
</g>
<g>
</g>
</svg>
